<?xml version="1.0" encoding="UTF-8"?>
<svg width="800px" height="800px" viewBox="0 0 800 800" version="1.1" xmlns="http://www.w3.org/2000/svg">
    <defs>
        <linearGradient x1="50%" y1="0%" x2="50%" y2="100%" id="linearGradient">
            <stop stop-color="currentColor" stop-opacity="0.12" offset="0%"></stop>
            <stop stop-color="currentColor" stop-opacity="0.08" offset="100%"></stop>
        </linearGradient>
    </defs>
    <g stroke="none" stroke-width="1" fill="none" fill-rule="evenodd">
        <g transform="translate(0.000000, 0.000000)" fill="url(#linearGradient)">
            <path d="M400,0 C620.914517,0 800,179.085483 800,400 C800,620.914517 620.914517,800 400,800 C179.085483,800 0,620.914517 0,400 C0,179.085483 179.085483,0 400,0 Z M400,80 C223.857625,80 80,223.857625 80,400 C80,576.142375 223.857625,720 400,720 C576.142375,720 720,576.142375 720,400 C720,223.857625 576.142375,80 400,80 Z"></path>
            <path d="M400,160 C536.731467,160 648,271.268533 648,408 C648,544.731467 536.731467,656 400,656 C263.268533,656 152,544.731467 152,408 C152,271.268533 263.268533,160 400,160 Z M400,240 C307.157288,240 232,315.157288 232,408 C232,500.842712 307.157288,576 400,576 C492.842712,576 568,500.842712 568,408 C568,315.157288 492.842712,240 400,240 Z"></path>
            <circle cx="400" cy="400" r="120"></circle>
        </g>
    </g>
</svg>
